<?xml version="1.0" standalone="no"?>
<!DOCTYPE svg PUBLIC "-//W3C//DTD SVG 20010904//EN"
 "http://www.w3.org/TR/2001/REC-SVG-20010904/DTD/svg10.dtd">
<svg version="1.0" xmlns="http://www.w3.org/2000/svg"
 width="900.000000pt" height="768.000000pt" viewBox="0 0 900.000000 768.000000"
 preserveAspectRatio="xMidYMid meet">
<metadata>
Created by potrace 1.10, written by Peter Selinger 2001-2011
</metadata>
<g transform="translate(0.000000,768.000000) scale(0.100000,-0.100000)"
fill="#000000" stroke="none">
<path d="M1505 6740 c-71 -13 -119 -41 -185 -109 -65 -67 -82 -99 -100 -191
-12 -61 -13 -3989 -1 -4061 13 -77 44 -139 99 -196 52 -54 103 -84 183 -107
47 -14 310 -16 2543 -16 2269 0 2496 1 2555 16 125 31 229 127 271 249 20 57
20 84 20 2083 l0 2026 -22 65 c-18 54 -33 78 -87 132 -36 36 -88 77 -116 90
l-50 24 -2535 1 c-1394 1 -2553 -2 -2575 -6z m5046 -231 c19 -6 49 -27 67 -47
l32 -35 0 -2016 c0 -1958 -1 -2017 -19 -2045 -10 -15 -32 -37 -47 -47 -28 -18
-97 -19 -2532 -19 -2267 0 -2506 1 -2530 16 -15 9 -36 28 -47 42 -20 27 -20
43 -20 2054 l0 2027 28 29 c16 16 43 34 60 40 46 15 4962 16 5008 1z"/>
<path d="M3995 5541 c-30 -19 -492 -474 -552 -544 -58 -68 -35 -161 45 -185
67 -20 93 -4 262 164 85 85 161 154 168 154 9 0 12 -141 12 -654 0 -463 3
-663 11 -687 18 -51 55 -78 110 -79 58 0 95 27 109 80 7 25 10 267 10 692 -1
384 3 654 8 656 5 1 81 -69 168 -156 178 -178 204 -194 271 -167 63 25 92 101
61 158 -14 26 -546 557 -576 575 -31 17 -72 15 -107 -7z"/>
<path d="M2975 4221 c-11 -5 -33 -22 -48 -38 l-28 -30 3 -314 3 -314 30 -58
c38 -77 124 -156 199 -185 l58 -22 864 0 864 0 62 30 c66 30 147 103 174 155
9 17 25 59 35 95 16 56 19 100 19 325 0 234 -2 264 -18 295 -42 76 -135 88
-192 24 l-30 -35 0 -277 0 -277 -26 -39 c-47 -69 -6 -66 -896 -66 -745 0 -805
1 -837 18 -19 9 -44 30 -55 45 -20 27 -21 45 -26 315 -3 158 -9 294 -13 302
-20 40 -101 69 -142 51z"/>
<path d="M7222 5750 c-73 -31 -89 -131 -32 -192 20 -22 30 -23 188 -28 178 -6
193 -9 236 -61 25 -30 26 -33 26 -180 0 -128 3 -155 19 -187 20 -40 66 -72
101 -72 30 0 75 25 99 56 19 25 21 39 21 194 0 129 -4 178 -17 216 -27 80 -69
138 -136 188 -88 65 -105 69 -302 73 -104 2 -190 -1 -203 -7z"/>
<path d="M7711 4757 c-13 -6 -34 -25 -45 -40 -20 -27 -21 -43 -24 -285 -2
-141 0 -271 3 -289 8 -42 57 -91 99 -99 40 -7 84 13 115 52 20 26 21 38 21
307 0 263 -1 282 -20 312 -30 49 -98 68 -149 42z"/>
<path d="M7710 3767 c-13 -7 -35 -28 -47 -46 -22 -33 -23 -40 -23 -297 0 -301
4 -320 73 -356 50 -25 87 -17 133 28 l34 35 0 282 c0 262 -2 284 -19 311 -35
53 -97 70 -151 43z"/>
<path d="M7711 2777 c-13 -6 -34 -25 -45 -40 -20 -27 -21 -42 -24 -295 -3
-307 1 -328 71 -363 50 -26 87 -18 132 28 l35 36 0 281 c0 263 -1 283 -20 314
-30 49 -96 67 -149 39z"/>
<path d="M2265 1791 c-11 -5 -29 -19 -40 -31 -18 -20 -20 -36 -20 -209 0 -164
2 -192 20 -231 29 -66 87 -141 134 -174 77 -54 141 -69 307 -74 137 -3 155 -2
191 17 69 35 92 100 57 161 -32 53 -58 60 -218 60 -159 0 -194 9 -231 58 -17
24 -21 48 -25 187 -4 97 -10 169 -18 182 -30 54 -99 77 -157 54z"/>
<path d="M7710 1788 c-13 -7 -35 -29 -47 -47 -21 -32 -23 -44 -23 -183 0 -171
-8 -196 -72 -229 -32 -16 -59 -19 -188 -19 l-150 0 -37 -34 c-33 -30 -37 -39
-37 -84 0 -57 12 -75 65 -103 32 -16 60 -19 165 -19 229 0 344 47 427 173 58
89 67 130 67 317 l0 166 -28 33 c-22 26 -36 34 -72 37 -26 3 -55 -1 -70 -8z"/>
<path d="M3233 1277 c-31 -29 -36 -40 -36 -78 0 -57 23 -93 74 -113 32 -13 84
-16 278 -16 131 0 253 3 271 6 49 10 100 66 100 110 0 44 -24 86 -60 108 -24
14 -67 16 -309 16 l-281 0 -37 -33z"/>
<path d="M4228 1280 c-67 -56 -57 -150 21 -189 37 -20 57 -21 296 -21 236 0
259 2 295 20 65 33 88 102 54 160 -35 58 -46 60 -351 60 l-278 0 -37 -30z"/>
<path d="M5213 1277 c-31 -29 -36 -40 -36 -78 0 -59 17 -87 66 -110 38 -17 68
-19 295 -19 214 0 259 3 288 16 68 32 93 104 58 164 -35 58 -45 60 -353 60
l-281 0 -37 -33z"/>
<path d="M6206 1280 c-65 -58 -54 -150 23 -189 37 -20 57 -21 297 -21 285 0
306 4 344 65 24 39 26 78 4 115 -35 58 -45 60 -353 60 l-280 0 -35 -30z"/>
</g>
</svg>
